/* XPM */
static char *result[] = {
/* columns rows colors chars-per-pixel */
"32 32 16 1 ",
"  c black",
". c #606060",
"X c #883000",
"o c #805018",
"O c #B05000",
"+ c #B07830",
"@ c #D06800",
"# c #E08800",
"$ c #F8D800",
"% c #E0A040",
"& c #F0C070",
"* c #104888",
"= c #3068B8",
"- c gray69",
"; c #F8F8F8",
": c None",
/* pixels */
"::::::::::::::::++::+:::::::::::",
":::::::::::::::+%+:++:::::::::::",
"::::::::::::::+$;++%+:::::::::::",
"::::::::::::++$;+$+$+:+:::::::::",
":::::::::::+%+$%+%+$+++:::::::::",
":::::::::::+$%++%++%+%+:::::::::",
"::::::::::+%;$+%$%++%%+:::::::::",
":::::::::++$;;+$;%+$;+%+::::::::",
":::::::::++%$;%%;%;$%+$+::::::::",
":::::::::+$+%;$+$+$%++%+::::::::",
":::::::::+%o+$%%+%+%+o+o::::::::",
":::::::::++&+o-*o*-o+%o:::::::::",
"::::::::::+%+&;=%=;%o+o:::::::::",
":::::::::::+o%;*&*;+oo::::::::::",
":::::::::::::+%&&%+o::::::::::::",
"::::::::::***O+++ooXX***::::::::",
":::::::::+*=O@@*=*OO@X*o::::::::",
":::::::::+&*O##@*O-.OX*o::::::::",
":::::::::o++O@##@O. XX+o::::::::",
":::::::::+&%**=*=****+%o::::::::",
":::::::::*=**O******X***::::::::",
":::::::::*=**@@=**OOX***::::::::",
"::::::::+&&%O#==O**OX%&o::::::::",
"::::::::+&%+O#=*X**@X++o::::::::",
":::::::::+ooO#**X**@Xoo:::::::::",
"::::::::::::X@@@XXXX*:::::::::::",
"::::::::::::*XXX***X*:::::::::::",
"::::::::::::**X***** :::::::::::",
"::::::::::: *O***     ::::::::::",
"::::::::::  O@=**      :::::::::",
"::::::::::: *X**      ::::::::::",
"::::::::::::         :::::::::::"
};
