/* XPM */
static char *down1[] = {
/* columns rows colors chars-per-pixel */
"32 32 15 1 ",
"  c None",
". c #606060",
"X c #883000",
"o c #805018",
"O c #B05000",
"+ c #B07830",
"@ c #D06800",
"# c #E08800",
"$ c #F8D800",
"% c #E0A040",
"& c #F0C070",
"* c #104888",
"= c #3068B8",
"- c gray69",
"; c #F8F8F8",
/* pixels */
"                                ",
"                ++  +           ",
"               +%+ ++           ",
"              +$;++%+           ",
"            ++$;+$+$+ +         ",
"           +%+$%+%+$+++         ",
"           +$%++%++%+%+         ",
"          +%;$+%$%++%%+         ",
"         ++$;;+$;%+$;+%+        ",
"         ++%$;%%;%;$%+$+        ",
"         +$+%;$+$+$%++%+        ",
"         +%o+$%%+%+%+o+o        ",
"         ++&+o-*o*-o+%o         ",
"          +%+&;=%=;%o+o         ",
"           +o%;*&*;+oo          ",
"             +%&&%+o            ",
"         ****O+++ooXX***        ",
"         +*=*@@*=**OOX**        ",
"         +&**##@**O.OX+o        ",
"         o++*@##@O. XXo         ",
"         +&%o*=*=****+o         ",
"         *=**O*********         ",
"        +&&%o@@=**OOX+o         ",
"        +&%+oO**O**@Xo          ",
"         +ooXO=*X**@X           ",
"            XX**X**@X           ",
"            XXXXX@@@X           ",
"             ****XXX*           ",
"             *****XO*           ",
"                **=O*           ",
"                **=@O           ",
"                 **X*           "
};
