/* XPM */
static char *c0861b89920141b0ffcbc379738599feWHwtV1drXovxBwCb[] = {
/* columns rows colors chars-per-pixel */
"32 32 34 1 ",
"  c None",
". c black",
"X c gray16",
"o c #633921",
"O c #00007B",
"+ c #39007B",
"@ c gray26",
"# c #5A5A5A",
"$ c #634A42",
"% c #7B7B7B",
"& c red",
"* c #8C5229",
"= c #BD6B29",
"- c #AD2142",
"; c #846B52",
": c #FF5A5A",
"> c #CE6342",
", c #CE8452",
"< c #E7A542",
"1 c #5A00BD",
"2 c #7B63AD",
"3 c #7B21CE",
"4 c #7B00FF",
"5 c #7B21E7",
"6 c #AD63AD",
"7 c gray61",
"8 c gray74",
"9 c #FF9494",
"0 c #CEAD94",
"q c #DEC6B5",
"w c #ADA5CE",
"e c #CEBDE7",
"r c gray87",
"t c #F7E7DE",
/* pixels */
"                                ",
"                                ",
"  3            1O            1  ",
"  1            5+            +  ",
"   5          +11O          1   ",
"   11+       111OOO       +++   ",
"   41111   +11+11OOO1   +++1+   ",
"   5114111++11111OOOO+11+++++   ",
"   51111+1+11+++1OOOOOOOOOO++   ",
"   51141+111++1O++OOOOOOOOO++   ",
"    11+1111++111O1OOOOOOOOOO    ",
"    ++1+111+1+++++OOOOOOOOOO    ",
"    ++++1111+1111+1OOOOOOOOO    ",
"    11+1+1+11+1111+4OOOOOOOO    ",
" 1 1++1+++O1+111111O1OOOOOOO+ 5 ",
"  11+O1+O+4+11111114+1+OOOOO55  ",
"   514111+O+111+114441O115531   ",
"    5++++OO+11+++14111111114    ",
"     5511+O+111+O1441111144     ",
"      5511+O+1++1144411454      ",
"       w55+++111+1111115w       ",
"       e6151111111111516e       ",
"       r8622555115552268r       ",
"       te876o4....4o678et       ",
"       :::0>*4.X.X4*>0:::       ",
"       :::0:=4XXXX4=:0:::       ",
"       :0:::<4@@$#4<:::0:       ",
"       :0:::<4%77;4<:::0:       ",
"       :9:q:,4#7774,:q:9:       ",
"       &&&q&,4%7774,&q&&&       ",
"         - :,4%7%74,: :         ",
"                                "
};
