/* XPM */
static char *_5b1081e2a02473fe8e9a889c46a5875mWCdpUe7CQgkQ7Nb[] = {
/* columns rows colors chars-per-pixel */
"32 32 4 1 ",
"  c #7B9400",
". c #BDBD00",
"X c #8CB529",
"o c #CEFF42",
/* pixels */
"oX XXXXXXX X. X    .o.  X X   X ",
"X  XX XXXX  X XX  .o.X  X X    X",
"   XX   ..    XX o..X    X..X XX",
"   XX X X.X   X  .     X  X.. XX",
"o.  ..X  o.      X     X   X. XX",
"oX   ..  Xo  .. X X XX X    X   ",
". X  X.  Xo...X X      X       X",
"X X  XX.   .. X..  ...    X X  X",
"  XX X X   .X ..  ..X     X XX X",
"   X       XX X. ..             ",
"X X  X  X. X     .....X    X XX ",
"  X   XX ..  Xo  XXXX..      X  ",
"X      X X. ooX  X     X   X   o",
".X  X  X  ..oXX X. XX X XX..X o.",
".X XoX     ..   oX  XX  X Xo. oX",
"XX X.oX X  .X  .o  ooXXo   .o.. ",
"X  XX.. oo XX XoX  XoX oo  X..XX",
"   X XX Xo    XX    .. Xo    . .",
"         ..    XXooXX.  o  XX  X",
"..    X  XX XXX X oo .X .X X.   ",
".. X  XooX  XXX X X.. . .X  ..  ",
"   X X X..X XX     X. .  X  XX X",
" X X XX X.X         X    X     X",
"      X  X.    X  X    X   X XX ",
"  XX  X   X    X  X    X   X XX ",
"XX          XX             X  Xo",
"XX   XX     X              X  o.",
"...  ...  X X   X     X  X XX . ",
".XX  ...  X XX  XX X  X  X XX X ",
"X X      X . XX X  X  X  XX X   ",
"  XXX X  X .  X X  X X  X X X X ",
".o. X X  X ..   X  X .. X   X X "
};
