/* XPM */
static char *f352da1595c54c38b2179536bff0bc8f0cJS2rAUlCsFNSvQ[] = {
/* columns rows colors chars-per-pixel */
"32 32 16 1 ",
"  c None",
". c black",
"X c #606060",
"o c #883000",
"O c #805018",
"+ c #B05000",
"@ c #B07830",
"# c #D06800",
"$ c #E08800",
"% c #F8D800",
"& c #E0A040",
"* c #F0C070",
"= c #104888",
"- c #3068B8",
"; c gray69",
": c #F8F8F8",
/* pixels */
"                                ",
"            @  @@               ",
"            @@ @%@              ",
"            @&@&:&@@            ",
"          @ @%@:%%&@@           ",
"          @@@:@%@&%@&@          ",
"          @&@&&@&@&&%&@         ",
"          @:&@&@:&@&:%@         ",
"         @&@%&@%:%@&:%@@        ",
"         @%@&@&::%&@%&@@        ",
"         @:&@@&:%%&@&@%O        ",
"         @&%&@@%%&@@@&&O        ",
"         @&:%@&@&@&@@%O         ",
"          @&%@&:@%&O&@O         ",
"           O&&@%@&@OOO          ",
"            OOO&%@OOO           ",
"         ===++OOOOOoo==         ",
"         O-=##o.X.o+o==O        ",
"         O==+$.;;X.#o=@O        ",
"         O*=+##.;.o+o@OO        ",
"         O&@===---===O@=        ",
"         =-=o===-==+o==O        ",
"         =-=o+#####+o@&O        ",
"         O*&o#+++#$#oOO         ",
"         O&@o#++o#$#o           ",
"          OOo+++o###o           ",
"            =oooo+#+o           ",
"            ==o==oooo           ",
"           ..=o===o==.          ",
"          ......=-+==..         ",
"           .....=-+==.          ",
"            .....=o=.           "
};
