/* XPM */
static char *_67d81ad22d54836b4f4caa45edb1c9bzItUwH84LbwuJKHt[] = {
/* columns rows colors chars-per-pixel */
"32 32 16 1 ",
"  c None",
". c black",
"X c #606060",
"o c #883000",
"O c #805018",
"+ c #B05000",
"@ c #B07830",
"# c #D06800",
"$ c #E08800",
"% c #F8D800",
"& c #E0A040",
"* c #F0C070",
"= c #104888",
"- c #3068B8",
"; c gray69",
": c #F8F8F8",
/* pixels */
"                                ",
"            @  @@               ",
"            @@ @%@              ",
"            @&@&:&@@            ",
"          @ @%@:%%&@@           ",
"          @@@:@%@&%@&@          ",
"          @&@&&@&@&&%&@         ",
"          @:&@&@:&@&:%@         ",
"         @&@%&@%:%@&:%@@        ",
"         @%@&@&::%&@%&@@        ",
"         @:&@@&:%%&@&@%O        ",
"         @&%&@@%%&@@@&&O        ",
"         @&:%@&@&@&@@%O         ",
"          @&%@&:@%&O&@O         ",
"           O&&@%@&@OOO          ",
"            OOO&%@OOO           ",
"         ==+++OOOOOo===         ",
"         O-+##o.X.o+===O        ",
"         O=++$.;XX.#==@O        ",
"         O*++##.X.o+=@OO        ",
"         =@@===---==O@&O        ",
"         O==o===-==+=-==        ",
"         O&@o+#####+=-==        ",
"          OOo#$#+++#O@@O        ",
"            o#$#oo++O@&O        ",
"            o###ooo+oOO         ",
"            o$$+oooo=           ",
"            oooo==o==           ",
"           .==o===o=..          ",
"          ..=-+==......         ",
"           .=-+==.....          ",
"            .=o=.....           "
};
