/* XPM */
static char *_73cfdfb1d2d404ac9897212f77e25cb0M67roVEaPVNv67c[] = {
/* columns rows colors chars-per-pixel */
"32 32 16 1 ",
"  c None",
". c black",
"X c #606060",
"o c #883000",
"O c #805018",
"+ c #B05000",
"@ c #B07830",
"# c #D06800",
"$ c #E08800",
"% c #F8D800",
"& c #E0A040",
"* c #F0C070",
"= c #104888",
"- c #3068B8",
"; c gray69",
": c #F8F8F8",
/* pixels */
"            @  @@               ",
"            @@ @%@              ",
"            @&@&:&@@            ",
"          @ @%@:%%&@@           ",
"          @@@:@%@&%@&@          ",
"          @&@&&@&@&&%&@         ",
"          @:&@&@:&@&:%@         ",
"         @&@%&@%:%@&:%@@        ",
"         @%@&@&::%&@%&@@        ",
"         @:&@@&:%%&@&@%O        ",
"         @&%&@@%%&@@@&&O        ",
"         @&:%@&@&@&@@%O         ",
"          @&%@&:@%&O&@O         ",
"           O&&@%@&@OOO          ",
"            OOO&%@OOO           ",
"         ===++OOOOOo===         ",
"         O-+##o.X.o+o==O        ",
"         O=++$.;XX.#o=@O        ",
"         O*++##.;.o+o@OO        ",
"         O&@===---==O@@=        ",
"         =-=o===-==+====        ",
"         O*&o+#####+=@@O        ",
"         O&@o#$#+#$#=@&O        ",
"          OOo#$$+++ooOO         ",
"            o###o##+o           ",
"            o+#+oooo=           ",
"            =ooo=====           ",
"            ==o======           ",
"           .==+======.          ",
"          ..==o==.==...         ",
"           ..=o=......          ",
"            .........           "
};
