/* XPM */
static char *bea9411a2a7b435ce01d3b221ff17174Taie99mvhZ3lc2uy[] = {
/* columns rows colors chars-per-pixel */
"32 32 18 1 ",
"  c None",
". c #F83800",
"X c #F84800",
"o c #F87000",
"O c #F89800",
"+ c #F8A000",
"@ c #F8B800",
"# c #F8B818",
"$ c #F8D800",
"% c #F8A040",
"& c #E0B840",
"* c #F8D040",
"= c #F8D078",
"- c #F8E878",
"; c #F8E8A8",
": c #F8F8A8",
"> c #F8E8C8",
", c #F8F8C8",
/* pixels */
"                                ",
"                                ",
"                                ",
"            oooooooo            ",
"          oo@@+@++O%oo          ",
"        oo#**##@#OOO%%oo        ",
"       o#=-===*##+Ooo%%%o       ",
"      o#=;;;;;=*#@OOooO%%o      ",
"     o@*-;>>;;-**@+OoooO%*o     ",
"     o#*;>:>,;-=#@@OoOOO+%o     ",
"    o+#*;;>>;;-*#@+OOoO+@#*o    ",
"    o+@*-;:;;-=*$@@OO++@***o    ",
"   oOO@#*-;;-=*@@@+OO+@*=;--o   ",
"   oOO+@#****#$@oOOOO+#=;;;-o   ",
"   oOoO@@#$#$#@oXoOoO+#-;;;;o   ",
"   oOOOO+@@@@@.XX.oOO+#*-;;-o   ",
"   oOoOOOO++++O..XOoOOO#*=-=o   ",
"   oOOoOoOoOOOOXo.oOoOOOO#**o   ",
"   oOoOoOoOoOoOoOoOoOoOoOO#&o   ",
"   oOOoOoooooooooooOoooOoO%#o   ",
"    oOOooOooooooooooooooOo#o    ",
"    oOoOoooooooooooooooOo%#o    ",
"     oOoooooooooooooooooo#o     ",
"     oOOoooooooooooooooo%#o     ",
"      oOOoooooooooooooo%#o      ",
"       oOOoooooooooooo%#o       ",
"        ooOOooooooooO#oo        ",
"          ooOOOOOOO#oo          ",
"            oooooooo            ",
"                                ",
"                                ",
"                                "
};
