/* XPM */
static char *cd88aa029ecf43088805d8495cd216661pxVGju2pYvCejsH[] = {
/* columns rows colors chars-per-pixel */
"32 32 15 1 ",
"  c None",
". c black",
"X c #883000",
"o c #805018",
"O c #B05000",
"+ c #B07830",
"@ c #D06800",
"# c #E08800",
"$ c #F8D800",
"% c #E0A040",
"& c #F0C070",
"* c #104888",
"= c #3068B8",
"- c gray69",
"; c #F8F8F8",
/* pixels */
"                                ",
"                +    +++        ",
"               ++  ++%%+        ",
"              +;+++%;$+         ",
"           + +;$+%$;$%+++       ",
"           ++%$+++$$%+$+        ",
"          +;+%+%$+%%+$%+        ",
"          +;%+%;%+++%;+         ",
"          +;$+;;++$+$%+++       ",
"          ++$%;$+%;+$+$$+       ",
"         +;++$$%+$$+%$%+        ",
"         +$++ooo%o+o%%+         ",
"          ++&*-+++%+o++++       ",
"          +%&=;&++%+o%++        ",
"           +%*;&%+ooo+          ",
"            +%&%ooo+            ",
"             oooXXX             ",
"             O@***XX            ",
"            O@*==**X            ",
"            O#++%oXX            ",
"            *=+ooo*             ",
"            **=%+o*             ",
"            ++*=**X             ",
"           +&%+o*OX             ",
"           ++%+oOO@X            ",
"            oooXO@@@X           ",
"             XXXXO@XX           ",
"           XOXXXXX*XX           ",
"          X****..*O=*           ",
"         .......XO*=*           ",
"          ......O***            ",
"            .......             "
};
