/* XPM */
static char *result[] = {
/* columns rows colors chars-per-pixel */
"32 32 15 1 ",
"  c black",
". c #883000",
"X c #805018",
"o c #B05000",
"O c #B07830",
"+ c #D06800",
"@ c #E08800",
"# c #F8D800",
"$ c #E0A040",
"% c #F0C070",
"& c #104888",
"* c #3068B8",
"= c gray69",
"- c #F8F8F8",
"; c None",
/* pixels */
";;;;;;;;;;;;;;;;O;;;;OOO;;;;;;;;",
";;;;;;;;;;;;;;;OO;;OO$$O;;;;;;;;",
";;;;;;;;;;;;;;O-OOO$-#O;;;;;;;;;",
";;;;;;;;;;;O;O-#O$#-#$OOO;;;;;;;",
";;;;;;;;;;;OO$#OOO##$O#O;;;;;;;;",
";;;;;;;;;;O-O$O$#O$$O#$O;;;;;;;;",
";;;;;;;;;;O-$O$-$OOO$-O;;;;;;;;;",
";;;;;;;;;;O-#O--OO#O#$OOO;;;;;;;",
";;;;;;;;;;OO#$-#O$-O#O##O;;;;;;;",
";;;;;;;;;O-OO##$O##O$#$O;;;;;;;;",
";;;;;;;;;O#OOXXX$XOX$$O;;;;;;;;;",
";;;;;;;;;;OO%&=OOO$OXOOOO;;;;;;;",
";;;;;;;;;;O$%*-%OO$OX$OO;;;;;;;;",
";;;;;;;;;;;O$&-%$OXXXO;;;;;;;;;;",
";;;;;;;;;;;;O$%$XXXO;;;;;;;;;;;;",
";;;;;;;;;;;;;XXX...;;;;;;;;;;;;;",
";;;;;;;;;;;;;o+&&&&.;;;;;;;;;;;;",
";;;;;;;;;;;;o@&&**&&;;;;;;;;;;;;",
";;;;;;;;;;;;o@+O$OX.;;;;;;;;;;;;",
";;;;;;;;;;;;&*&OOXX;;;;;;;;;;;;;",
";;;;;;;;;;;X&&&O$OX;;;;;;;;;;;;;",
";;;;;;;;;;;X&&+*&&&;;;;;;;;;;;;;",
";;;;;;;;;;;;&&OO&&.;;;;;;;;;;;;;",
";;;;;;;;;;;;&O%$OX.;;;;;;;;;;;;;",
";;;;;;;;;;;;&OO$OX.;;;;;;;;;;;;;",
";;;;;;;;;;;;;.OXXoo.;;;;;;;;;;;;",
";;;;;;;;;;;;;...o++.;;;;;;;;;;;;",
";;;;;;;;;;;; .o....;;;;;;;;;;;;;",
";;;;;;;;;;  .&&o*&& ;;;;;;;;;;;;",
";;;;;;;;;    .o&*&&  ;;;;;;;;;;;",
";;;;;;;;;;   o&&&&& ;;;;;;;;;;;;",
";;;;;;;;;;;;       ;;;;;;;;;;;;;"
};
