/* XPM */
static char *right11[] = {
/* columns rows colors chars-per-pixel */
"32 32 14 1 ",
"  c None",
". c #883000",
"X c #805018",
"o c #B05000",
"O c #B07830",
"+ c #D06800",
"@ c #E08800",
"# c #F8D800",
"$ c #E0A040",
"% c #F0C070",
"& c #104888",
"* c #3068B8",
"= c gray69",
"- c #F8F8F8",
/* pixels */
"                                ",
"        OOO    O                ",
"        O$$OO  OO               ",
"         O#-$OOO-O              ",
"       OOO$#-#$O#-O O           ",
"        O#O$##OOO#$OO           ",
"        O$#O$$O#$O$O-O          ",
"         O-$OOO$-$O$-O          ",
"       OOO$#O#OO--O#-O          ",
"       O##O#O-$O#-$#OO          ",
"        O$#$O##O$##OO-O         ",
"         O$$XOX$XXXOO#O         ",
"       OOOOXO$OOO=&%OO          ",
"        OO$XO$OO%-*%$O          ",
"          OXXXO$%-&$O           ",
"            OXXX$%$O            ",
"             ...XXX             ",
"            .&&&++o             ",
"            &&*&&+@o            ",
"            XO$$O+@o            ",
"            XXXOO&*&X           ",
"            XO$O&&&&$X          ",
"            &&&*o+&&OX          ",
"            &&OOoo&&X           ",
"            XO$%Oo&&            ",
"            XO$OO+.&            ",
"             XXXo+.             ",
"            &&..o&&             ",
"            &&..&&&.            ",
"                &&*&o.          ",
"                &&&&&o          ",
"                                "
};
