/* XPM */
static char *f4092d1fdd5c4843c6390cecfed993181oGVUiykyPBaZ88k[] = {
/* columns rows colors chars-per-pixel */
"32 32 19 1 ",
"  c None",
". c gray16",
"X c #633921",
"o c #184200",
"O c #007B00",
"+ c #426B00",
"@ c gray26",
"# c #7B7B7B",
"$ c #8C5229",
"% c #BD6B29",
"& c #009C00",
"* c #00BD00",
"= c #00DE00",
"- c green",
"; c #18FF18",
": c #7BFF42",
"> c #DEA584",
", c #FFCE94",
"< c #E7FFAD",
/* pixels */
"                                ",
"             &;;&OO             ",
"            =:;:=-&O            ",
"           ==<;--=&oOO          ",
"         =&;<=:<=&=o&<O&        ",
"       =:=;&&<=*&OO&==;;oo      ",
" #    ==;<=&&&*OO&&===--==O     ",
"     &*:<==&*&&O*&&&=-;===o@    ",
"    =*<==;-*&&&&**&-**O&**o@    ",
"    =:=:<=&-==;-&<==OOOoO&O     ",
"   &O=-=-=<<=&=:;=<=**@o&o@o    ",
"   O=*&=-<==;&<=:*&=&OOoOO&o    ",
"   O::==&===*&&&-=O&Oo@@@o&@@   ",
"    -&*&&&=*&*=**OOO=*@@ooo@@   ",
"   O&&*&=OoO==-==-=O&O@@@@@@    ",
"   &O&;;:==;**--&&OOo&O=&o@@    ",
"    O<:-=-:=&O&Oo=&*OoOo@Ooo    ",
"    O===-:&OoOOoooooo@@@@@@@    ",
"    o&=*&&&&ooO-o@@ooO@o@+@     ",
"    o&o**&@@o*Oooo@Ooo@@@@@@    ",
"       @O@oo@@oo@o&ooo@@ @      ",
"       ooO@@o@+@o@@O@@oo        ",
"           >>>>$@.@+            ",
"           >$%%X%.@.            ",
"         >>%X>$$X.@.            ",
"           X$%X>>.X.            ",
"          >%,X$%$.@..           ",
"         %  X$.X>X@             ",
"           % $XX$X              ",
"            >   $               ",
"                >               ",
"                                "
};
